<?xml version="1.0" encoding="UTF-8"?><svg id="Layer_1" xmlns="http://www.w3.org/2000/svg" viewBox="0 0 72 72"><rect width="72" height="72" style="fill:#f6f2e9;"/><path d="M9.78642,44.32086h14.57844c.08554.82821.12112,1.6466.26098,2.44676.69093,3.95291,3.14299,6.32051,6.90602,7.33818,3.4702.93849,6.99413.85597,10.40016-.26306,2.84507-.93472,4.44508-2.64323,4.12645-5.87822-.17527-1.77961-1.45663-2.64518-2.97514-3.28711-3.30576-1.39747-6.86325-1.73459-10.31672-2.51068-4.18329-.9401-8.36781-1.92034-12.18811-3.93963-3.4559-1.82668-6.36239-4.2834-8.00503-7.96195-1.19615-2.67866-1.49921-5.51795-1.30819-8.4047.24528-3.70658,1.36833-7.09222,3.76688-10.02254,2.44696-2.98947,5.49707-5.06576,9.11065-6.3483,7.15214-2.53845,14.39524-2.77531,21.67226-.65386,6.12042,1.78428,10.5956,5.60856,13.62393,11.22734,1.76273,3.27058,2.09623,6.75526,2.0816,10.39909h-14.18008c-.35247-1.51245-.58235-2.99755-1.05311-4.40187-.70477-2.1024-2.31396-3.36252-4.36523-4.07483-2.62861-.91279-5.32649-.91979-8.05166-.59025-1.66758.20165-3.22389.66054-4.58872,1.68841-1.45707,1.09733-2.07591,2.5686-1.85681,4.33774.22876,1.84721,1.52231,2.87376,3.12042,3.53419,3.67926,1.52047,7.58644,2.21064,11.43265,3.14302,3.66706.88896,7.39463,1.73166,10.87409,3.14154,4.72136,1.91311,7.98681,5.40632,8.94807,10.62785.76602,4.161.53902,8.24519-1.28822,12.13924-1.68452,3.5899-4.36089,6.29253-7.70298,8.33696-4.18552,2.56037-8.78035,3.83439-13.66138,4.15081-5.34134.34624-10.59014-.11378-15.61569-2.03644-6.90322-2.64101-11.29795-7.5521-12.79545-14.84856-.48332-2.35494-.63286-4.77842-.95007-7.28913Z" style="fill:#1d1d1d;"/></svg>