<svg xmlns="http://www.w3.org/2000/svg" width="96" height="96" viewBox="0 0 72 72"><path d="M0 0h72v72H0z" style="fill:#f6f2e9"/><path d="M9.79 44.32h14.58c.09.83.12 1.65.26 2.45.69 3.95 3.14 6.32 6.91 7.34 3.47.94 6.99.86 10.4-.26 2.85-.93 4.45-2.64 4.13-5.88-.18-1.78-1.46-2.65-2.98-3.29-3.31-1.4-6.86-1.73-10.32-2.51-4.18-.94-8.37-1.92-12.19-3.94-3.46-1.83-6.36-4.28-8.01-7.96-1.2-2.68-1.5-5.52-1.31-8.4.25-3.71 1.37-7.09 3.77-10.02 2.45-2.99 5.5-5.07 9.11-6.35 7.15-2.54 14.4-2.78 21.67-.65 6.12 1.78 10.6 5.61 13.62 11.23 1.76 3.27 2.1 6.76 2.08 10.4H47.33c-.35-1.51-.58-3-1.05-4.4-.7-2.1-2.31-3.36-4.37-4.07-2.63-.91-5.33-.92-8.05-.59-1.67.2-3.22.66-4.59 1.69-1.46 1.1-2.08 2.57-1.86 4.34.23 1.85 1.52 2.87 3.12 3.53 3.68 1.52 7.59 2.21 11.43 3.14 3.67.89 7.39 1.73 10.87 3.14 4.72 1.91 7.99 5.41 8.95 10.63.77 4.16.54 8.25-1.29 12.14-1.68 3.59-4.36 6.29-7.7 8.34-4.19 2.56-8.78 3.83-13.66 4.15-5.34.35-10.59-.11-15.62-2.04-6.9-2.64-11.3-7.55-12.8-14.85-.48-2.35-.63-4.78-.95-7.29Z" style="fill:#434345"/></svg>